<?xml version="1.0" standalone="no"?>
<!DOCTYPE svg PUBLIC "-//W3C//DTD SVG 20010904//EN"
 "http://www.w3.org/TR/2001/REC-SVG-20010904/DTD/svg10.dtd">
<svg version="1.0" xmlns="http://www.w3.org/2000/svg"
 width="512.000000pt" height="512.000000pt" viewBox="0 0 512.000000 512.000000"
 preserveAspectRatio="xMidYMid meet">

<g transform="translate(0.000000,512.000000) scale(0.100000,-0.100000)"
fill="#000000" stroke="none">
<path d="M470 5111 c-73 -22 -146 -87 -177 -156 -17 -38 -18 -133 -21 -1865
-2 -1293 1 -1833 9 -1851 10 -25 46 -49 73 -49 7 0 25 9 40 21 l26 20 0 1815
c0 1997 -4 1863 62 1904 29 18 50 20 191 20 l157 0 0 -2410 0 -2410 -157 0
c-141 0 -162 2 -191 20 -60 37 -62 52 -62 434 l0 345 -26 20 c-30 24 -43 26
-78 10 -45 -21 -47 -43 -44 -420 3 -315 5 -358 21 -394 23 -50 80 -110 132
-138 l40 -22 1810 -3 1811 -2 54 27 c61 31 106 86 120 149 5 21 10 292 10 601
l0 561 286 919 c315 1010 310 991 261 1075 -34 58 -69 80 -190 118 -90 29 -98
30 -125 16 -31 -16 -42 -34 -42 -67 0 -40 25 -59 118 -90 64 -21 98 -38 108
-54 14 -21 1 -67 -198 -709 l-213 -686 -5 1547 c-4 1288 -7 1552 -19 1573 -32
58 -67 94 -115 116 l-51 24 -1795 -1 c-987 0 -1806 -4 -1820 -8z m2890 -186
c0 -110 43 -201 119 -252 18 -12 76 -35 129 -52 128 -40 209 -90 294 -180 86
-92 146 -211 185 -366 l28 -110 0 -1415 0 -1415 -28 -110 c-39 -155 -99 -274
-185 -366 -83 -89 -165 -140 -288 -178 -115 -36 -143 -51 -184 -97 -43 -49
-60 -92 -67 -170 l-6 -64 -1188 0 -1189 0 0 2410 0 2410 1190 0 1190 0 0 -45z
m730 25 c11 -11 22 -30 25 -42 3 -13 4 -128 3 -257 l-3 -234 -54 72 c-95 129
-257 237 -411 276 -36 9 -76 23 -88 32 -31 19 -52 71 -52 128 l0 45 280 0
c265 0 281 -1 300 -20z m25 -4738 c-3 -12 -14 -31 -25 -42 -19 -19 -35 -20
-300 -20 l-280 0 0 35 c0 47 23 100 52 118 12 9 52 23 88 32 154 39 316 147
411 276 l54 72 3 -224 c1 -123 0 -234 -3 -247z"/>
<path d="M2222 4509 c-28 -14 -51 -36 -66 -63 -22 -38 -26 -65 -46 -341 -28
-373 -25 -447 17 -537 54 -115 149 -199 266 -235 l57 -17 -2 -216 -3 -215
-106 -60 c-144 -82 -157 -91 -179 -128 -39 -63 -15 -146 52 -187 31 -19 51
-20 308 -20 248 0 279 2 309 18 66 35 91 132 52 196 -14 22 -60 54 -150 106
l-131 74 0 218 0 217 42 12 c152 40 278 181 307 342 8 46 6 129 -14 390 -13
183 -27 341 -31 352 -15 42 -48 78 -88 96 -37 17 -69 19 -296 19 -240 0 -258
-1 -298 -21z m542 -161 c3 -18 14 -166 26 -328 21 -311 20 -332 -20 -410 -23
-45 -74 -92 -126 -118 -128 -65 -290 -16 -368 111 -25 41 -30 61 -34 130 -4
84 32 620 43 637 4 6 99 10 240 10 l234 0 5 -32z m-134 -1653 l95 -55 -199 0
c-110 0 -196 3 -193 6 15 15 173 102 187 103 8 0 58 -24 110 -54z"/>
<path d="M1354 2240 c-26 -10 -54 -48 -54 -71 0 -9 9 -28 21 -43 l20 -26 1205
0 c1191 0 1204 0 1224 20 27 27 26 81 -1 106 -20 18 -56 19 -1208 21 -656 1
-1196 -2 -1207 -7z"/>
<path d="M1455 1911 c-46 -20 -53 -42 -105 -330 -48 -266 -50 -284 -35 -307
32 -50 103 -51 125 -2 6 13 21 79 33 148 13 68 26 120 29 115 3 -6 22 -66 42
-135 40 -135 63 -170 115 -170 56 0 75 29 117 176 27 97 40 131 46 118 4 -11
17 -68 28 -127 11 -60 25 -117 31 -128 24 -46 93 -43 124 5 15 22 13 40 -35
292 -28 148 -56 282 -62 298 -17 41 -67 61 -111 42 -36 -15 -44 -29 -76 -143
-12 -40 -31 -106 -42 -145 l-21 -73 -49 164 c-26 91 -56 172 -66 182 -22 22
-62 31 -88 20z"/>
<path d="M2180 1907 c-48 -24 -50 -41 -48 -344 4 -355 -12 -328 189 -328 l141
0 24 28 c29 34 30 56 4 90 -19 24 -27 26 -113 29 l-92 3 -3 58 -3 57 81 0 c73
0 83 3 105 25 34 33 33 77 -1 104 -22 17 -41 21 -106 21 l-79 0 3 58 3 57 92
3 c86 3 94 5 113 29 27 35 25 59 -9 94 -29 29 -30 29 -153 29 -78 0 -132 -5
-148 -13z"/>
<path d="M2674 1910 c-52 -20 -54 -33 -54 -343 l0 -288 25 -24 c29 -30 64 -32
96 -6 23 18 24 26 29 183 l5 163 109 -159 c60 -87 117 -167 127 -177 21 -21
69 -25 99 -9 37 20 41 62 34 345 -4 148 -11 278 -16 288 -24 46 -104 41 -127
-9 -7 -15 -11 -85 -11 -176 l0 -151 -120 174 c-124 179 -151 206 -196 189z"/>
<path d="M3314 1909 c-12 -6 -27 -22 -33 -35 -14 -32 -15 -415 0 -468 13 -46
79 -120 134 -149 61 -33 173 -30 240 5 28 14 62 39 77 55 53 56 58 82 58 331
0 217 -1 230 -20 247 -28 25 -76 23 -103 -4 -21 -20 -22 -32 -27 -242 -5 -218
-5 -221 -29 -240 -51 -42 -125 -36 -165 12 l-26 31 0 208 c0 183 -2 210 -17
228 -22 26 -61 35 -89 21z"/>
<path d="M1323 1024 c-20 -20 -24 -31 -19 -57 3 -18 16 -40 27 -49 20 -17 93
-18 1214 -18 1191 0 1192 0 1219 21 34 27 36 79 4 109 -22 20 -28 20 -1220 20
l-1199 0 -26 -26z"/>
</g>
</svg>
